<?xml version="1.0" encoding="UTF-8"?>
<svg id="Capa_1" data-name="Capa 1" xmlns="http://www.w3.org/2000/svg" version="1.1" viewBox="0 0 32 32">
  <defs>
    <style>
      .cls-1 {
        fill: #000;
      }

      .cls-1, .cls-2 {
        stroke-width: 0px;
      }

      .cls-2 {
        fill: #fff;
      }
    </style>
  </defs>
  <rect class="cls-1" width="32" height="32"/>
  <g>
    <path class="cls-2" d="M7.98,22.67c-1.13-.72-2.03-1.68-2.7-2.88s-1-2.49-1-3.88.34-2.7,1.03-3.88c.68-1.17,1.61-2.11,2.79-2.8,1.17-.69,2.45-1.04,3.84-1.04,1.01,0,1.98.19,2.91.57.93.38,1.74.96,2.43,1.74s1.17,1.72,1.45,2.84l-3.5,1.07c-.2-.58-.6-1.09-1.21-1.53-.6-.44-1.32-.66-2.13-.66-1.02,0-1.87.31-2.55.94-.68.62-1.02,1.53-1.02,2.71,0,.79.16,1.48.48,2.06.32.58.75,1.03,1.29,1.33s1.12.45,1.75.45c.56,0,1.09-.12,1.57-.36.48-.24.88-.54,1.2-.9.31-.36.52-.69.61-1.02l3.28,1.13c-.16.94-.58,1.81-1.25,2.6-.67.79-1.5,1.42-2.5,1.88-.99.46-2.02.69-3.08.69-1.33,0-2.56-.36-3.7-1.08Z"/>
    <path class="cls-2" d="M26.3,16.57c-.6-.34-1.14-.58-1.61-.74-.47-.15-.92-.23-1.35-.23-.4,0-.74.06-1,.18-.26.12-.39.28-.39.46,0,.34.47.5,1.41.5,1.37,0,2.44.27,3.2.81.77.54,1.15,1.28,1.15,2.24,0,.73-.23,1.39-.68,2-.45.61-1.05,1.1-1.81,1.46-.76.36-1.59.54-2.49.54s-1.73-.16-2.54-.49-1.44-.77-1.91-1.32l2.03-2.3c.32.28.69.5,1.11.65.42.15.84.23,1.27.23s.77-.07,1.06-.21c.29-.14.43-.31.43-.51,0-.16-.09-.28-.28-.34-.19-.07-.5-.1-.95-.1-.08.01-.2.02-.36.02-.67,0-1.31-.15-1.9-.45-.6-.3-1.08-.71-1.44-1.22-.36-.51-.54-1.06-.54-1.65s.21-1.19.62-1.73c.42-.54.97-.97,1.67-1.3.7-.33,1.44-.49,2.21-.49s1.56.15,2.35.46c.79.31,1.5.74,2.15,1.29l-1.41,2.24Z"/>
  </g>
</svg>